<?xml version="1.0" encoding="utf-8"?>
<!-- Generator: Adobe Illustrator 15.1.0, SVG Export Plug-In . SVG Version: 6.00 Build 0)  -->
<!DOCTYPE svg PUBLIC "-//W3C//DTD SVG 1.1//EN" "http://www.w3.org/Graphics/SVG/1.1/DTD/svg11.dtd">
<svg version="1.1" id="Lager_1" xmlns="http://www.w3.org/2000/svg" xmlns:xlink="http://www.w3.org/1999/xlink" x="0px" y="0px"
	 width="333px" height="250px" viewBox="0 0 333 250" enable-background="new 0 0 333 250" xml:space="preserve">
<g>
	<g>
		<path fill="#0A71B3" d="M166.201,163.911c-5.602-9.468-9.472-20.218-11.132-31.072c-1.229-8.04,0.689-14.621,5.866-20.69
			c3.187-3.733,7.758-6.251,12.473-3.982c6.75,3.248,8.762,13.602,10.961,19.909c0.375,1.076,2.021,5.453,2.01,5.535
			c0.528-3.563,1.294-7.094,2.182-10.585c2.142-8.418,5.407-17.354,15.584-16.871c15.766,0.746,14.439,28.208,12.148,37.855
			c-2.723,11.463-8.91,22.54-13.912,33.135c-3.129,6.625-6.316,13.225-9.57,19.785c-0.658,1.325,0.643,3.605,0,4.9
			c3.721-7.498,7.344-15.042,10.904-22.616c5.768-12.26,12.241-24.688,14.049-38.259c1.389-10.428,0.605-22.484-3.695-32.032
			c-4.588-10.188-17.327-9.78-22.146-0.41c-2.269,4.412-3.416,9.471-4.458,14.285c-0.363,1.678-0.67,3.367-0.949,5.062
			c-0.146,0.883-0.035,1.582-0.431,0.382c-2.418-7.361-4.405-17.403-10.046-23.007c-10.058-9.994-20.214,7.306-21.31,16.074
			c-1.271,10.16,0.591,20.862,3.764,30.446c1.947,5.88,4.554,11.723,7.711,17.059C165.495,167.617,166.925,165.137,166.201,163.911
			L166.201,163.911z"/>
	</g>
</g>
<g>
	<g>
		<path fill="#FFEC00" d="M165.758,159.654c-5.604-9.467-9.473-20.217-11.132-31.07c-1.229-8.039,0.69-14.62,5.867-20.69
			c3.187-3.732,7.757-6.252,12.472-3.981c6.752,3.249,8.764,13.603,10.962,19.91c0.374,1.077,2.021,5.452,2.009,5.538
			c0.528-3.564,1.293-7.096,2.184-10.588c2.143-8.417,5.406-17.356,15.579-16.872c15.768,0.747,14.44,28.208,12.153,37.856
			c-2.725,11.46-8.91,22.537-13.912,33.136c-3.129,6.623-6.316,13.223-9.569,19.782c-0.658,1.324,0.642,3.604,0,4.901
			c3.717-7.497,7.342-15.042,10.903-22.617c5.767-12.258,12.24-24.689,14.045-38.259c1.392-10.429,0.608-22.483-3.691-32.031
			c-4.592-10.188-17.328-9.781-22.146-0.407c-2.269,4.41-3.416,9.47-4.461,14.285c-0.362,1.676-0.668,3.37-0.947,5.062
			c-0.146,0.883-0.038,1.581-0.432,0.382c-2.418-7.362-4.404-17.406-10.048-23.012c-10.056-9.995-20.213,7.311-21.31,16.073
			c-1.27,10.161,0.592,20.862,3.767,30.447c1.945,5.879,4.551,11.719,7.709,17.058C165.052,163.361,166.482,160.88,165.758,159.654
			L165.758,159.654z"/>
	</g>
</g>
<g>
	<path fill="#E1001A" d="M44.501,145.909c0.23-1.198,0.355-2.388,0.594-3.481c1.999-13.246,5.834-40.489,6.423-56.742
		c0.001-1.398-0.138-1.813-1-1.858l-4.112-0.438c-0.32,0.025-0.591-0.706-0.624-1.133c-0.008-0.107-0.016-0.213,0.198-0.23
		l15.265-1.159c0.212-0.015,0.221,0.09,0.23,0.198c0.031,0.428-0.019,1.18-0.338,1.205l-1.889,0.572
		c-0.829,0.385-1.339,0.746-1.571,1.945c-1.404,8.373-9.286,54.385-11.287,61.944c-0.331,1.312-0.52,1.65-5.323,2.018l-2.027,0.152
		c-0.321,0.026-0.443-0.18-0.565-0.385c-3.49-9.184-15.146-49.525-18.312-61.521c-0.155-0.633-0.5-0.928-1.042-0.994l-2.497-0.346
		c-0.328-0.081-0.59-0.705-0.622-1.133c-0.008-0.107-0.016-0.212,0.197-0.23l18.04-1.37c0.213-0.017,0.221,0.09,0.237,0.304
		c0.033,0.427-0.247,0.984-0.453,1.106l-4.122,0.848c-0.74,0.167-1.144,0.518-0.979,1.256c1.545,7.614,10.355,43.014,14.128,55.934
		c0.302,1.154,0.621,2.527,1.023,3.57L44.501,145.909z"/>
	<path fill="#E1001A" d="M83.232,118.703c-0.292-2.447-0.857-5.626-1.085-7.219c-1.349-7.842-3.463-11.655-7.625-11.338
		c-3.203,0.244-6.786,3.953-9.919,9.344c-0.099,0.113-0.197,0.229-0.304,0.235c-0.321,0.026-1.24-0.766-0.959-1.323
		c4.392-8.601,9.395-11.986,15.372-12.441c7.685-0.584,10.535,8.649,11.313,18.896c0.145,1.919,0.541,9.942,0.669,13.047
		c0.07,3.75,0.334,11.461,0.487,13.49c0.056,0.746,0.287,0.944,1.156,1.092l3.398,0.926c0.435,0.072,0.575,0.49,0.599,0.812
		c0.016,0.213-0.091,0.219-0.305,0.235c-1.289-0.011-3.317,0.146-5.345,0.297c-1.921,0.146-3.522,0.271-4.581,0.458
		c-0.321,0.023-0.551-0.173-0.583-0.599c-0.13-1.708-0.579-6.187-0.764-8.642c-0.065-0.854-0.071-2.354-0.153-3.422l-0.213,0.016
		c-0.346,1.099-0.577,2.299-0.931,3.293c-1.474,4.619-4.665,10.662-10.748,11.123c-5.337,0.404-10.095-4.279-10.776-13.244
		c-0.65-8.54,2.972-18.798,11.511-19.446c3.629-0.279,6.206,1.139,8.061,2.932c0.459,0.395,0.934,0.999,1.411,1.607L83.232,118.703z
		 M75.617,142.794c3.949-0.301,6.638-5.874,7.994-14.886c0.05-0.756,0.19-1.731,0.141-2.374c-0.04-0.536-0.327-1.48-0.605-2.319
		c-0.688-1.984-3.442-7.144-8.033-6.795c-4.483,0.34-6.443,7.037-5.826,15.15c0.576,7.578,3.019,11.471,6.222,11.229L75.617,142.794
		z"/>
	<path fill="#E1001A" d="M120.38,115.879c-0.294-2.445-0.858-5.624-1.086-7.218c-1.348-7.841-3.463-11.655-7.625-11.339
		c-3.203,0.242-6.786,3.955-9.919,9.343c-0.099,0.116-0.198,0.23-0.304,0.238c-0.321,0.025-1.24-0.766-0.96-1.323
		c4.393-8.601,9.396-11.985,15.374-12.44c7.684-0.585,10.534,8.647,11.312,18.894c0.146,1.921,0.54,9.944,0.669,13.048
		c0.071,3.75,0.334,11.459,0.487,13.488c0.057,0.744,0.287,0.943,1.157,1.095l3.398,0.923c0.436,0.074,0.574,0.493,0.598,0.812
		c0.016,0.214-0.09,0.222-0.304,0.238c-1.288-0.011-3.317,0.144-5.344,0.299c-1.921,0.146-3.522,0.269-4.582,0.455
		c-0.32,0.023-0.55-0.176-0.583-0.6c-0.131-1.711-0.578-6.186-0.765-8.639c-0.064-0.854-0.072-2.357-0.153-3.426l-0.213,0.019
		c-0.345,1.097-0.577,2.299-0.931,3.291c-1.474,4.621-4.666,10.66-10.75,11.124c-5.337,0.404-10.094-4.278-10.775-13.246
		c-0.648-8.539,2.972-18.798,11.511-19.446c3.629-0.276,6.207,1.141,8.061,2.934c0.459,0.393,0.935,0.998,1.41,1.607L120.38,115.879
		z M112.764,139.971c3.949-0.3,6.639-5.871,7.994-14.886c0.05-0.757,0.189-1.733,0.142-2.373c-0.04-0.534-0.327-1.479-0.604-2.317
		c-0.688-1.988-3.442-7.146-8.033-6.798c-4.484,0.341-6.443,7.036-5.828,15.149c0.576,7.581,3.021,11.475,6.223,11.229
		L112.764,139.971z"/>
	<path fill="#E1001A" d="M145.004,90.926c0.632-0.156,0.869,0.148,0.901,0.577c0.091,1.172,0.791,16.043,1.146,22.134
		c0.227,4.385,0.719,12.292,0.459,17.356c0.031,20.182-4.666,30.415-15.447,31.233c-1.173,0.09-2.891,0.113-3.875-0.134
		c-0.329-0.079-0.451-0.284-0.59-0.706l-2.727-9.023c-0.131-0.312,0.576-0.903,0.896-0.93c0.106-0.008,0.106-0.008,0.222,0.094
		c1.664,2.125,3.345,4.468,4.764,6.184c0.582,0.6,1.051,1.102,1.607,1.381c0.673,0.381,1.438,0.538,2.077,0.486
		c4.803-0.366,8.341-7.505,7.231-24.92c-0.251-4.705-0.867-12.818-1.134-16.34c-0.528-5.541-1.626-17.161-2.246-21.087
		c-0.155-0.632-0.319-1.37-0.96-1.322l-4.819,0.15c-0.534,0.041-0.902-0.574-0.943-1.107c-0.015-0.213-0.015-0.213,0.296-0.344
		L145.004,90.926z M139.713,76.406c2.242-0.17,4.087,1.514,4.258,3.754c0.171,2.242-1.605,4.311-3.954,4.487
		c-2.242,0.173-4.53-1.695-4.676-3.614c-0.162-2.137,1.49-4.411,4.264-4.62L139.713,76.406z"/>
	<path fill="#E1001A" d="M245.807,106.346c-0.293-2.445-0.858-5.625-1.084-7.219c-1.352-7.842-3.465-11.655-7.627-11.339
		c-3.201,0.244-6.785,3.955-9.919,9.344c-0.099,0.115-0.196,0.23-0.305,0.239c-0.322,0.024-1.24-0.766-0.959-1.323
		c4.394-8.601,9.394-11.987,15.371-12.441c7.687-0.584,10.534,8.646,11.315,18.895c0.143,1.92,0.537,9.942,0.668,13.046
		c0.07,3.752,0.332,11.46,0.485,13.49c0.058,0.746,0.286,0.944,1.156,1.093l3.397,0.926c0.437,0.074,0.573,0.491,0.6,0.812
		c0.016,0.213-0.092,0.221-0.305,0.236c-1.289-0.01-3.316,0.144-5.346,0.299c-1.922,0.146-3.521,0.269-4.581,0.455
		c-0.317,0.024-0.549-0.172-0.583-0.598c-0.128-1.709-0.576-6.186-0.764-8.641c-0.064-0.854-0.071-2.354-0.153-3.422l-0.213,0.016
		c-0.346,1.101-0.578,2.298-0.933,3.291c-1.473,4.621-4.662,10.661-10.748,11.123c-5.338,0.407-10.094-4.277-10.775-13.244
		c-0.646-8.539,2.973-18.798,11.512-19.447c3.629-0.276,6.205,1.14,8.062,2.934c0.46,0.392,0.935,0.999,1.409,1.607L245.807,106.346
		z M238.189,130.438c3.951-0.299,6.64-5.874,7.994-14.887c0.051-0.756,0.189-1.732,0.141-2.373c-0.039-0.535-0.327-1.48-0.604-2.318
		c-0.689-1.987-3.445-7.146-8.033-6.797c-4.482,0.34-6.442,7.039-5.826,15.152c0.578,7.578,3.019,11.471,6.222,11.229
		L238.189,130.438z"/>
</g>
<g>
	<path fill="#00632E" d="M119.924,175.287l-3.038,0.229l-0.083-1.097l7.394-0.562l0.083,1.097l-3.053,0.229l0.676,8.891
		l-1.303,0.101L119.924,175.287z"/>
	<path fill="#00632E" d="M126.604,173.676l0.317,4.178l4.83-0.367l-0.316-4.18l1.303-0.099l0.76,9.983l-1.304,0.102l-0.356-4.682
		l-4.831,0.367l0.356,4.682l-1.305,0.099l-0.759-9.985L126.604,173.676z"/>
	<path fill="#00632E" d="M140.541,177.951l-3.868,0.294l0.273,3.599l4.327-0.328l0.082,1.08l-5.631,0.43l-0.759-9.984l5.408-0.411
		l0.082,1.081l-4.104,0.312l0.24,3.156l3.867-0.295L140.541,177.951z"/>
	<path fill="#00632E" d="M146.707,172.146l0.317,4.179l4.831-0.368l-0.318-4.178l1.304-0.102l0.76,9.987l-1.304,0.099l-0.355-4.681
		l-4.832,0.368l0.357,4.681l-1.304,0.101l-0.76-9.986L146.707,172.146z"/>
	<path fill="#00632E" d="M160.645,176.424l-3.868,0.293l0.273,3.602l4.327-0.334l0.082,1.082l-5.631,0.431l-0.76-9.985l5.408-0.412
		l0.081,1.082l-4.103,0.312l0.24,3.154l3.866-0.293L160.645,176.424z"/>
	<path fill="#00632E" d="M164.514,177.682l-0.799,3.219l-1.334,0.1l2.649-10.243l1.541-0.118l4.168,9.728l-1.378,0.104l-1.305-3.061
		L164.514,177.682z M167.727,176.42l-1.21-2.798c-0.273-0.638-0.466-1.218-0.659-1.782l-0.029,0.002
		c-0.104,0.588-0.204,1.221-0.366,1.846l-0.759,2.963L167.727,176.42z"/>
	<path fill="#00632E" d="M171.463,170.398c0.643-0.17,1.584-0.33,2.458-0.394c1.378-0.104,2.302,0.093,2.952,0.593
		c0.521,0.407,0.87,1.066,0.93,1.853c0.1,1.304-0.662,2.241-1.675,2.678l0.003,0.046c0.777,0.208,1.289,0.885,1.604,1.903
		c0.436,1.371,0.744,2.315,0.982,2.68l-1.334,0.103c-0.188-0.279-0.474-1.107-0.835-2.332c-0.401-1.355-0.989-1.834-2.162-1.787
		l-1.216,0.089l0.331,4.327l-1.29,0.097L171.463,170.398z M173.098,174.85l1.316-0.101c1.379-0.103,2.195-0.926,2.109-2.067
		c-0.099-1.289-1.073-1.781-2.438-1.678c-0.622,0.046-1.05,0.125-1.268,0.201L173.098,174.85z"/>
	<path fill="#00632E" d="M181.542,170.602l-3.037,0.231l-0.082-1.099l7.394-0.562l0.082,1.1l-3.051,0.229l0.676,8.893l-1.303,0.1
		L181.542,170.602z"/>
	<path fill="#00632E" d="M224.125,171.182c0.259,3.422-1.688,5.42-4.238,5.611c-2.65,0.203-4.646-1.718-4.875-4.74
		c-0.24-3.17,1.557-5.393,4.225-5.596C221.977,166.25,223.9,168.202,224.125,171.182z M216.372,171.92
		c0.164,2.148,1.467,3.971,3.51,3.816c2.046-0.157,3.06-2.125,2.886-4.395c-0.154-2.001-1.349-3.996-3.498-3.832
		C217.123,167.676,216.207,169.738,216.372,171.92z"/>
	<path fill="#00632E" d="M225.42,166.164l5.378-0.41l0.084,1.083l-4.077,0.31l0.254,3.32l3.762-0.285l0.082,1.066l-3.764,0.284
		l0.344,4.519l-1.305,0.1L225.42,166.164z"/>
	<path fill="#00632E" d="M236.275,173.807c0.604,0.327,1.457,0.543,2.348,0.479c1.318-0.103,2.036-0.858,1.96-1.865
		c-0.069-0.918-0.644-1.426-2.033-1.827c-1.674-0.469-2.748-1.248-2.854-2.644c-0.116-1.556,1.086-2.81,3.027-2.956
		c1.006-0.076,1.781,0.104,2.229,0.322l-0.275,1.078c-0.329-0.168-1.016-0.397-1.92-0.332c-1.362,0.104-1.817,0.959-1.769,1.643
		c0.072,0.934,0.713,1.346,2.133,1.773c1.738,0.522,2.646,1.273,2.756,2.739c0.117,1.541-0.906,2.978-3.261,3.155
		c-0.966,0.072-2.038-0.145-2.603-0.459L236.275,173.807z"/>
	<path fill="#00632E" d="M250.809,173.967c-0.442,0.273-1.388,0.584-2.604,0.676c-2.815,0.215-5.056-1.404-5.304-4.694
		c-0.24-3.138,1.72-5.404,4.815-5.642c1.229-0.092,2.052,0.114,2.406,0.268l-0.246,1.076c-0.491-0.2-1.2-0.326-2.033-0.264
		c-2.338,0.18-3.782,1.793-3.582,4.415c0.185,2.46,1.712,3.908,4.128,3.726c0.799-0.061,1.588-0.283,2.088-0.575L250.809,173.967z"
		/>
	<path fill="#00632E" d="M253.904,170.887l-0.801,3.219l-1.334,0.103l2.649-10.244l1.541-0.116l4.168,9.725l-1.378,0.104
		l-1.307-3.062L253.904,170.887z M257.115,169.627l-1.211-2.8c-0.272-0.634-0.467-1.216-0.659-1.782l-0.029,0.003
		c-0.104,0.589-0.202,1.222-0.366,1.847l-0.758,2.963L257.115,169.627z"/>
	<path fill="#00632E" d="M261.598,173.459l-0.759-9.984l1.422-0.111l3.572,4.812c0.813,1.114,1.485,2.121,2.022,3.11l0.041-0.021
		c-0.217-1.322-0.34-2.535-0.459-4.093l-0.316-4.179l1.214-0.092l0.759,9.986l-1.302,0.098l-3.556-4.823
		c-0.78-1.06-1.533-2.149-2.106-3.192l-0.042,0.018c0.171,1.253,0.275,2.453,0.4,4.113l0.324,4.265L261.598,173.459z"/>
	<path fill="#00632E" d="M270.607,162.881c0.776-0.193,1.703-0.352,2.725-0.432c1.854-0.143,3.207,0.201,4.139,0.938
		c0.967,0.743,1.575,1.862,1.698,3.477c0.125,1.631-0.294,3.004-1.146,3.994c-0.875,1.002-2.379,1.625-4.318,1.772
		c-0.936,0.07-1.693,0.08-2.35,0.058L270.607,162.881z M272.568,171.613c0.328,0.021,0.805-0.002,1.306-0.039
		c2.771-0.211,4.136-1.863,3.933-4.562c-0.164-2.359-1.613-3.75-4.341-3.546c-0.666,0.05-1.165,0.147-1.499,0.248L272.568,171.613z"
		/>
	<path fill="#00632E" d="M281.761,161.882l0.759,9.985l-1.305,0.1l-0.76-9.986L281.761,161.882z"/>
	<path fill="#00632E" d="M284.773,171.695l-0.76-9.983l1.422-0.108l3.57,4.812c0.814,1.114,1.487,2.122,2.023,3.11l0.041-0.021
		c-0.219-1.321-0.34-2.534-0.459-4.094l-0.316-4.179l1.212-0.092l0.763,9.985l-1.304,0.101l-3.555-4.824
		c-0.783-1.061-1.533-2.147-2.106-3.19l-0.044,0.019c0.171,1.25,0.275,2.453,0.4,4.111l0.325,4.266L284.773,171.695z"/>
	<path fill="#00632E" d="M295.904,167.691l-0.797,3.22l-1.334,0.101l2.648-10.244l1.54-0.117l4.167,9.727l-1.378,0.104l-1.304-3.058
		L295.904,167.691z M299.117,166.436l-1.213-2.799c-0.271-0.638-0.463-1.218-0.654-1.783l-0.029,0.004
		c-0.104,0.588-0.207,1.224-0.367,1.847l-0.758,2.963L299.117,166.436z"/>
	<path fill="#00632E" d="M305.008,170.159l-4.031-9.735l1.405-0.109l1.931,4.804c0.519,1.315,0.979,2.504,1.353,3.651l0.028-0.002
		c0.192-1.179,0.498-2.472,0.858-3.809l1.312-5.062l1.378-0.104l-2.811,10.257L305.008,170.159z"/>
	<path fill="#00632E" d="M311.62,159.613l0.759,9.984l-1.304,0.101l-0.761-9.985L311.62,159.613z"/>
	<path fill="#00632E" d="M316.008,166.164l-0.798,3.22l-1.333,0.103l2.648-10.244l1.541-0.117l4.166,9.725l-1.379,0.106l-1.304-3.06
		L316.008,166.164z M319.221,164.906l-1.211-2.799c-0.271-0.635-0.464-1.215-0.656-1.781l-0.028,0.002
		c-0.104,0.587-0.206,1.223-0.367,1.846l-0.757,2.965L319.221,164.906z"/>
</g>
<g>
	<g>
		<path fill="#172982" d="M165.958,154.421c-5.604-9.47-9.473-20.218-11.133-31.073c-1.229-8.039,0.689-14.619,5.867-20.688
			c3.186-3.733,7.757-6.251,12.472-3.98c6.751,3.249,8.764,13.6,10.961,19.908c0.376,1.077,2.021,5.453,2.009,5.537
			c0.528-3.564,1.294-7.096,2.185-10.588c2.142-8.418,5.406-17.355,15.58-16.872c15.768,0.745,14.442,28.208,12.151,37.854
			c-2.723,11.463-8.909,22.543-13.913,33.139c-3.125,6.625-6.312,13.221-9.566,19.785c-0.657,1.324,0.641,3.604,0,4.899
			c3.718-7.499,7.343-15.044,10.904-22.618c5.767-12.258,12.239-24.691,14.047-38.261c1.39-10.426,0.608-22.482-3.695-32.03
			c-4.59-10.188-17.328-9.781-22.145-0.407c-2.27,4.41-3.42,9.469-4.464,14.283c-0.364,1.68-0.668,3.369-0.946,5.064
			c-0.147,0.881-0.039,1.581-0.434,0.383c-2.416-7.361-4.402-17.409-10.045-23.012c-10.061-9.988-20.213,7.305-21.31,16.073
			c-1.271,10.162,0.592,20.862,3.767,30.448c1.945,5.879,4.55,11.717,7.709,17.058C165.251,158.129,166.681,155.646,165.958,154.421
			L165.958,154.421z"/>
	</g>
</g>
<g>
	<g>
		<path fill="#FFFFFF" d="M166.359,150.287c-5.604-9.467-9.473-20.214-11.132-31.068c-1.228-8.041,0.688-14.623,5.867-20.691
			c3.186-3.733,7.758-6.251,12.471-3.981c6.752,3.25,8.763,13.601,10.961,19.91c0.377,1.077,2.022,5.453,2.011,5.537
			c0.528-3.563,1.296-7.097,2.185-10.587c2.141-8.417,5.406-17.354,15.579-16.872c15.769,0.747,14.443,28.208,12.153,37.855
			c-2.723,11.463-8.912,22.541-13.915,33.135c-3.127,6.625-6.313,13.225-9.57,19.785c-0.657,1.326,0.642,3.604,0,4.9
			c3.72-7.498,7.345-15.042,10.906-22.617c5.767-12.259,12.242-24.688,14.049-38.259c1.388-10.426,0.608-22.483-3.696-32.03
			c-4.593-10.186-17.326-9.782-22.146-0.408c-2.268,4.411-3.418,9.469-4.46,14.284c-0.365,1.679-0.668,3.369-0.95,5.062
			c-0.145,0.882-0.034,1.582-0.432,0.382c-2.416-7.362-4.403-17.406-10.045-23.011c-10.06-9.994-20.214,7.304-21.31,16.073
			c-1.271,10.162,0.59,20.863,3.766,30.448c1.947,5.881,4.552,11.719,7.709,17.055C165.653,153.997,167.085,151.514,166.359,150.287
			L166.359,150.287z"/>
	</g>
</g>
<g>
	<g>
		<path fill="#E1001A" d="M166.875,147.641c-5.604-9.466-9.472-20.216-11.132-31.074c-1.229-8.038,0.688-14.619,5.868-20.687
			c3.185-3.734,7.756-6.252,12.471-3.982c6.75,3.249,8.764,13.603,10.961,19.912c0.375,1.076,2.021,5.452,2.012,5.537
			c0.528-3.564,1.295-7.094,2.184-10.585c2.141-8.419,5.406-17.356,15.58-16.874c15.767,0.745,14.438,28.209,12.149,37.854
			c-2.723,11.464-8.909,22.541-13.913,33.135c-3.127,6.625-6.312,13.225-9.57,19.785c-0.654,1.322,0.644,3.604,0,4.9
			c3.721-7.498,7.346-15.041,10.908-22.617c5.766-12.258,12.235-24.688,14.043-38.256c1.389-10.426,0.609-22.485-3.692-32.033
			c-4.591-10.187-17.327-9.776-22.146-0.407c-2.269,4.413-3.418,9.472-4.463,14.286c-0.361,1.677-0.667,3.369-0.945,5.062
			c-0.147,0.882-0.037,1.581-0.433,0.382c-2.418-7.359-4.407-17.405-10.046-23.01c-10.058-9.997-20.215,7.309-21.311,16.072
			c-1.27,10.161,0.592,20.863,3.766,30.447c1.947,5.883,4.552,11.722,7.712,17.061C166.167,151.352,167.598,148.867,166.875,147.641
			L166.875,147.641z"/>
	</g>
</g>
</svg>
